<?xml version="1.0" encoding="UTF-8" standalone="no"?>
<svg width="108px" height="18px" viewBox="0 0 108 18" version="1.1" xmlns="http://www.w3.org/2000/svg" xmlns:xlink="http://www.w3.org/1999/xlink">
    <!-- Generator: sketchtool 41.1 (35376) - http://www.bohemiancoding.com/sketch -->
    <title>89B24291-F6E4-4C4A-A483-7D55C6A460B9</title>
    <desc>Created with sketchtool.</desc>
    <defs>
        <polygon id="path-1" points="0 0 108 0 108 18 0 18"></polygon>
    </defs>
    <g id="Symbols" stroke="none" stroke-width="1" fill="none" fill-rule="evenodd">
        <g id="section_main_menu" transform="translate(-2.000000, -3.000000)">
            <g id="img/draugiem_logo">
                <g transform="translate(2.000000, 3.000000)">
                    <g>
                        <mask id="mask-2" fill="white">
                            <use xlink:href="#path-1"></use>
                        </mask>
                        <g id="mask"></g>
                        <path d="M65.1595,8.0422 L63.6295,8.0422 L62.0885,8.0422 C62.0135,8.0422 61.9585,7.9692 61.9785,7.8932 C62.0775,7.5262 62.2615,7.2472 62.5305,7.0462 C62.8365,6.8322 63.2015,6.7192 63.6295,6.7192 L63.6665,6.7192 C64.0695,6.7192 64.4235,6.8322 64.7295,7.0722 C65.0055,7.2812 65.1805,7.5582 65.2695,7.8922 C65.2895,7.9682 65.2355,8.0422 65.1595,8.0422 L65.1595,8.0422 Z M63.6295,4.8072 L63.5205,4.8072 C62.1775,4.8072 61.0895,5.1802 60.2485,5.9872 C59.4175,6.7822 59.0025,8.1102 59.0025,9.4982 C59.0025,10.9112 59.4545,12.0212 60.3575,12.8412 C61.1875,13.5852 62.2745,13.9632 63.6295,13.9882 L63.7275,13.9882 C64.7295,13.9882 65.5945,13.7482 66.3405,13.2822 C67.0575,12.8222 67.5415,12.0982 67.7945,11.2982 C67.8425,11.1492 67.7305,10.9942 67.5775,10.9942 L65.2215,10.9942 C65.1465,10.9942 65.0755,11.0302 65.0345,11.0942 C64.8895,11.3202 64.7255,11.5812 64.5325,11.6802 C64.3135,11.8052 64.0445,11.8692 63.7155,11.8692 L63.6295,11.8692 C62.4695,11.8322 61.8955,11.2132 61.8955,9.9902 L63.6295,9.9902 L67.6985,9.9902 C67.8655,9.9902 68.0005,9.8502 68.0005,9.6782 L68.0005,9.6752 C68.0005,8.2372 67.5975,6.8702 66.8045,6.0252 C66.0355,5.2172 64.9725,4.8202 63.6295,4.8072 L63.6295,4.8072 Z M56.5005,5.0002 L55.0005,5.0002 C54.4475,5.0002 54.0005,5.4482 54.0005,6.0002 L54.0005,13.5002 C54.0005,13.7762 54.2235,14.0002 54.5005,14.0002 L56.0005,14.0002 C56.5525,14.0002 57.0005,13.5522 57.0005,13.0002 L57.0005,5.5002 C57.0005,5.2242 56.7765,5.0002 56.5005,5.0002 L56.5005,5.0002 Z M47.0015,11.5062 C45.8945,11.5062 44.9975,10.6082 44.9975,9.5022 C44.9975,8.3952 45.8945,7.4982 47.0015,7.4982 C48.1075,7.4982 49.0045,8.3952 49.0045,9.5022 C49.0045,10.6082 48.1075,11.5062 47.0015,11.5062 L47.0015,11.5062 Z M51.5005,5.0002 L50.0005,5.0002 C49.4475,5.0002 49.0005,5.4482 49.0005,6.0002 C48.6205,5.6642 48.2855,5.4642 47.8485,5.2742 C47.6175,5.1732 47.3735,5.0972 47.1045,5.0452 C46.8855,5.0072 46.6545,4.9952 46.3985,4.9952 C45.1135,4.9952 44.0475,5.4392 43.2265,6.3282 C42.4175,7.2282 42.0005,8.2192 42.0005,9.5002 C42.0005,10.7432 42.3915,11.8722 43.1745,12.6972 C43.9705,13.5092 44.9845,13.9272 46.2315,13.9272 C46.5395,13.9272 46.8345,13.8892 47.1045,13.8392 C47.3225,13.7872 47.5285,13.7242 47.7205,13.6362 C48.1575,13.4442 48.5805,13.1532 48.9665,12.7722 L48.9665,13.1652 C48.9665,13.9532 48.8375,14.5242 48.5935,14.9042 C48.3115,15.3482 47.8105,15.8272 47.1045,15.8392 L47.0015,15.8392 C46.6935,15.8392 46.3985,15.7762 46.1155,15.6372 C45.8735,15.5212 45.7085,15.3642 45.6145,15.1502 C45.5755,15.0622 45.4905,15.0012 45.3935,15.0012 L42.4295,15.0012 C42.2795,15.0012 42.1635,15.1382 42.1945,15.2842 C42.3915,16.1902 42.9785,16.9112 43.9575,17.4642 C44.8825,17.9832 45.9105,18.0002 47.0395,18.0002 L47.1045,18.0002 C48.7095,17.9872 49.9165,17.5932 50.7255,16.8202 C51.5855,15.9952 52.0005,14.7642 52.0005,13.0002 L52.0005,5.5002 C52.0005,5.2242 51.7765,5.0002 51.5005,5.0002 L51.5005,5.0002 Z M107.7525,4.9952 L105.1735,4.9952 C104.8845,4.9952 104.6215,5.1652 104.4995,5.4312 L102.5005,9.5002 L100.4955,5.4302 C100.3735,5.1642 100.1115,4.9952 99.8235,4.9952 L97.2435,4.9952 C97.0575,4.9952 96.9385,5.1952 97.0245,5.3612 L101.4355,13.8582 C101.4785,13.9412 101.5625,13.9922 101.6545,13.9922 L103.3665,13.9922 C103.4585,13.9922 103.5435,13.9412 103.5855,13.8572 L107.9725,5.3612 C108.0575,5.1942 107.9385,4.9952 107.7525,4.9952 L107.7525,4.9952 Z M95.5005,0.0002 L94.0005,0.0002 C93.4475,0.0002 93.0005,0.4482 93.0005,1.0002 L93.0005,13.5002 C93.0005,13.7762 93.2235,14.0002 93.5005,14.0002 L95.0005,14.0002 C95.5525,14.0002 96.0005,13.5522 96.0005,13.0002 L96.0005,0.5002 C96.0005,0.2242 95.7765,0.0002 95.5005,0.0002 L95.5005,0.0002 Z M89.0045,9.9912 C88.4425,9.9912 87.9725,10.1752 87.5935,10.5702 C87.2015,10.9652 87.0065,11.4402 87.0065,11.9932 C87.0065,12.5592 87.2015,13.0332 87.5935,13.4162 C87.9725,13.8112 88.4425,14.0092 89.0045,14.0092 C89.5535,14.0092 90.0245,13.8112 90.4155,13.4162 C90.8075,13.0212 91.0035,12.5462 91.0035,11.9932 C91.0035,11.4402 90.8075,10.9652 90.4155,10.5702 C90.0365,10.1752 89.5665,9.9912 89.0045,9.9912 L89.0045,9.9912 Z M81.9745,4.9952 C81.3515,4.9952 80.7705,5.1392 80.2285,5.4252 C79.6855,5.7142 79.2915,5.9772 79.0005,6.5002 C78.6955,5.9372 78.2575,5.6742 77.7415,5.4002 C77.2255,5.1252 76.6295,4.9952 75.9545,4.9952 C75.3725,4.9952 74.8435,4.9702 74.3945,5.1912 C73.9305,5.4142 73.3835,5.5302 73.0005,6.0002 L73.0005,5.5002 C73.0005,5.2242 72.7765,5.0002 72.5005,5.0002 L71.0005,5.0002 C70.4475,5.0002 70.0005,5.4482 70.0005,6.0002 L70.0005,7.5002 L70.0005,13.5002 C70.0005,13.7762 70.2235,14.0002 70.5005,14.0002 L72.0005,14.0002 C72.5525,14.0002 73.0005,13.5522 73.0005,13.0002 L73.0005,10.0002 C73.0005,9.2552 73.0605,8.5622 73.1795,8.2482 C73.3775,7.6742 73.9175,7.4002 74.5265,7.4002 C75.1355,7.4002 75.6105,7.6862 75.8215,8.2612 C75.9275,8.5882 76.0005,9.2812 76.0005,10.0002 L76.0005,13.5002 C76.0005,13.7762 76.2235,14.0002 76.5005,14.0002 L78.0005,14.0002 C78.5525,14.0002 79.0005,13.5522 79.0005,13.0002 L79.0005,10.0002 C79.0005,9.2812 79.0325,8.5882 79.1785,8.2612 C79.3895,7.7252 79.9245,7.4642 80.5585,7.4642 C81.1545,7.4642 81.6675,7.7382 81.8525,8.3132 C81.9455,8.6012 82.0005,9.2692 82.0005,10.0002 L82.0005,13.5002 C82.0005,13.7762 82.2235,14.0002 82.5005,14.0002 L84.0005,14.0002 C84.5525,14.0002 85.0005,13.5522 85.0005,13.0002 L85.0005,8.5002 C85.0005,7.4292 84.7795,6.5372 84.3295,5.9612 C83.8135,5.3092 83.0325,4.9952 81.9745,4.9952 L81.9745,4.9952 Z M55.5005,1.0002 C54.6715,1.0002 54.0005,1.6722 54.0005,2.5002 C54.0005,3.3282 54.6715,4.0002 55.5005,4.0002 C56.3285,4.0002 57.0005,3.3282 57.0005,2.5002 C57.0005,1.6722 56.3285,1.0002 55.5005,1.0002 L55.5005,1.0002 Z M24.0005,11.5062 C22.8965,11.5062 22.0005,10.6112 22.0005,9.5072 C22.0005,8.4032 22.8965,7.5072 24.0005,7.5072 C25.1045,7.5072 25.9995,8.4032 25.9995,9.5072 C25.9995,10.6112 25.1045,11.5062 24.0005,11.5062 L24.0005,11.5062 Z M28.5005,5.0002 L27.0005,5.0002 C26.4475,5.0002 26.0005,5.4482 26.0005,6.0002 C25.6935,5.6322 25.2255,5.4822 24.7525,5.2922 C24.5365,5.2032 24.3065,5.1402 24.0765,5.1022 C23.8085,5.0512 23.7685,5.0002 23.5005,5.0002 C22.2495,5.0002 20.9885,5.4562 20.1975,6.3422 C19.3925,7.2292 18.9975,8.2792 18.9975,9.5332 C18.9975,10.7602 19.4065,11.8232 20.2225,12.7102 C21.0525,13.6082 21.7615,14.0002 23.0005,14.0002 C23.2555,14.0002 23.8215,14.0262 24.0765,13.9752 C24.3195,13.9252 24.5615,13.8482 24.8035,13.7472 C25.2595,13.5462 25.6765,13.3382 26.0005,13.0002 L26.0005,13.5002 C26.0005,13.7762 26.2235,14.0002 26.5005,14.0002 L28.0005,14.0002 C28.5525,14.0002 29.0005,13.5522 29.0005,13.0002 L29.0005,5.5002 C29.0005,5.2242 28.7765,5.0002 28.5005,5.0002 L28.5005,5.0002 Z M17.7675,5.0032 L17.4405,5.0032 C16.8665,5.0032 16.3815,5.1212 15.9275,5.3462 C15.4845,5.5832 15.2875,6.0272 15.0005,6.5002 L15.0005,5.5002 C15.0005,5.2242 14.7765,5.0002 14.5005,5.0002 L13.0005,5.0002 C12.4475,5.0002 12.0005,5.4482 12.0005,6.0002 L12.0005,13.5002 C12.0005,13.7762 12.2235,14.0002 12.5005,14.0002 L14.0005,14.0002 C14.5525,14.0002 15.0005,13.5522 15.0005,13.0002 L15.0005,10.0002 C15.0005,9.2442 15.1275,8.4922 15.3905,8.1142 C15.7005,7.6642 16.0705,7.4402 16.7995,7.4402 C17.0625,7.4402 17.2605,7.4512 17.4405,7.4862 C17.5235,7.5032 17.6065,7.5282 17.6915,7.5592 C17.8355,7.6132 17.9895,7.5062 17.9895,7.3542 L17.9895,5.2232 C17.9895,5.1022 17.8905,5.0032 17.7675,5.0032 L17.7675,5.0032 Z M5.0015,11.5062 C3.8975,11.5062 3.0025,10.6112 3.0025,9.5072 C3.0025,8.4032 3.8975,7.5072 5.0015,7.5072 C6.1055,7.5072 7.0005,8.4032 7.0005,9.5072 C7.0005,10.6112 6.1055,11.5062 5.0015,11.5062 L5.0015,11.5062 Z M9.5005,0.0002 L8.5005,0.0002 L8.0005,0.0002 C7.4475,0.0002 7.0005,0.4482 7.0005,1.0002 L7.0005,6.0002 C6.6935,5.6322 6.3085,5.4822 5.8495,5.2922 C5.6325,5.2032 5.4025,5.1402 5.1605,5.1022 C4.9045,5.0512 4.6365,5.0262 4.3685,5.0262 C3.1185,5.0262 1.9915,5.4562 1.1995,6.3422 C0.3965,7.2292 0.0005,8.2472 0.0005,9.5002 C0.0005,10.7272 0.4085,11.8232 1.2255,12.7102 C2.0545,13.6082 3.0755,14.0042 4.3015,14.0042 C4.5685,14.0042 4.8235,13.9792 5.0665,13.9282 C5.3215,13.8782 5.5645,13.8012 5.8065,13.7002 C6.2615,13.5002 6.7185,13.3702 7.0005,12.9622 L7.0005,13.5002 C7.0005,13.7762 7.2235,14.0002 7.5005,14.0002 L9.0005,14.0002 C9.5525,14.0002 10.0005,13.5522 10.0005,13.0002 L10.0005,0.5002 C10.0005,0.2242 9.7765,0.0002 9.5005,0.0002 L9.5005,0.0002 Z M40.0005,5.5002 C40.0005,5.2242 39.7765,5.0002 39.5005,5.0002 L38.0005,5.0002 C37.4475,5.0002 37.0005,5.4482 37.0005,6.0002 L37.0005,9.5002 C37.0005,10.0972 36.9115,10.7062 36.7085,11.0052 C36.4815,11.3542 36.0775,11.5362 35.5085,11.5362 C34.9275,11.5362 34.5235,11.3542 34.2965,11.0052 C34.1075,10.7322 34.0005,10.1232 34.0005,9.5002 L34.0005,6.0002 C34.0005,5.4482 33.5525,5.0002 33.0005,5.0002 L31.5005,5.0002 C31.2235,5.0002 31.0005,5.2242 31.0005,5.5002 L31.0005,10.5002 C31.0005,11.8362 31.4545,12.5742 32.3135,13.1962 C33.0595,13.7162 34.1325,13.9882 35.5085,13.9882 C36.9225,13.9882 37.9835,13.7162 38.7295,13.1962 C39.5755,12.5872 40.0005,11.8502 40.0005,10.5002 L40.0055,6.0002 L40.0005,6.0002 L40.0005,5.5002 Z" id="draugiem" fill="#FF6600" mask="url(#mask-2)"></path>
                    </g>
                </g>
            </g>
        </g>
    </g>
</svg>